<?xml version="1.0" encoding="utf-8"?>
<!-- Generator: Adobe Illustrator 24.0.1, SVG Export Plug-In . SVG Version: 6.00 Build 0)  -->
<svg version="1.1" id="Layer_1" xmlns="http://www.w3.org/2000/svg" xmlns:xlink="http://www.w3.org/1999/xlink" x="0px" y="0px"
	 viewBox="0 0 135.72 156.72" style="enable-background:new 0 0 135.72 156.72;" xml:space="preserve">
<style type="text/css">
	.st0{fill:#FFFFFF;}
</style>
<path class="st0" d="M67.86,0L0,39.18v64.66l33.78,19.5v13.7l34.08,19.68l34-19.63v-13.83l33.86-19.55V39.18L67.86,0z M52.47,78.19
	L34.2,88.74v13.25l-0.14,0.08l-18.4-10.62V70.19l18.4-10.62l18.4,10.62V78.19z M73.1,93.05l-5.19-3.12l-5.45,3.25l-7.01-3.84
	l12.47-7.42l11.87,7.12L73.1,93.05z M120.14,91.44l-18.4,10.62l-0.14-0.08V88.74L83.34,78.19v-8l18.4-10.62l18.4,10.62V91.44z"/>
</svg>
